<?xml version="1.0" standalone="no"?>
<!DOCTYPE svg PUBLIC "-//W3C//DTD SVG 20010904//EN"
 "http://www.w3.org/TR/2001/REC-SVG-20010904/DTD/svg10.dtd">
<svg version="1.0" xmlns="http://www.w3.org/2000/svg"
 width="736.000000pt" height="714.000000pt" viewBox="0 0 736.000000 714.000000"
 preserveAspectRatio="xMidYMid meet">

<g transform="translate(0.000000,714.000000) scale(0.100000,-0.100000)"
fill="#000000" stroke="none">
<path d="M4190 6810 c-24 -15 -19 -169 8 -256 26 -85 54 -125 73 -107 10 10
10 18 1 35 -43 87 -50 130 -52 331 0 10 -12 9 -30 -3z"/>
<path d="M3644 6749 c-9 -16 423 -438 449 -439 9 0 17 6 17 14 0 16 -423 429
-444 434 -8 2 -18 -2 -22 -9z"/>
<path d="M1430 6349 c-13 -6 -39 -21 -57 -34 -38 -30 -42 -30 -102 -8 -64 22
-111 12 -150 -33 -17 -19 -31 -41 -31 -48 0 -8 -15 -17 -34 -20 -42 -8 -81
-38 -102 -79 -13 -24 -15 -47 -10 -112 10 -116 10 -115 -90 -115 -105 0 -173
-14 -251 -53 -127 -62 -223 -187 -252 -325 -12 -58 -16 -3142 -4 -3142 3 0
106 32 227 71 253 81 243 78 516 159 113 34 327 101 475 150 149 49 344 114
435 144 91 29 179 61 195 69 17 9 93 37 170 61 l140 45 20 -25 c17 -21 33 -26
105 -34 47 -6 126 -15 175 -21 50 -5 149 -17 220 -24 72 -8 207 -24 300 -35
94 -12 208 -25 255 -30 47 -5 134 -14 193 -21 137 -15 149 -10 172 68 9 32 21
69 26 83 4 14 17 58 29 98 19 64 24 72 45 72 29 0 36 -10 151 -215 l79 -140 5
-1181 5 -1181 140 44 c260 82 459 145 595 188 90 29 138 40 146 34 8 -6 25 -5
50 5 22 8 161 53 309 101 149 47 294 94 323 104 l53 19 25 -39 c13 -21 29 -39
34 -39 19 0 22 30 7 54 -9 13 -25 52 -36 87 -12 34 -26 66 -33 70 -17 11 26
64 68 84 22 10 47 15 66 11 27 -5 30 -2 48 40 35 81 200 582 200 606 0 5 -22
36 -48 71 -27 34 -59 77 -71 95 l-23 33 28 42 c42 64 90 106 158 138 80 38 92
37 112 -8 28 -68 103 -300 115 -360 l12 -59 -52 -115 c-28 -63 -79 -163 -114
-222 -61 -106 -215 -326 -229 -327 -4 0 -10 9 -13 20 -7 21 -30 27 -40 10 -8
-12 43 -176 59 -189 7 -6 18 -6 25 -1 12 7 11 15 -3 50 -9 24 -13 46 -9 51 4
4 55 21 113 39 188 56 444 142 481 160 46 24 128 98 163 149 16 22 39 70 52
107 l24 66 0 997 c0 548 -4 1010 -9 1026 -15 52 -53 135 -62 135 -5 0 -9 6 -9
13 0 18 -84 103 -132 133 -22 14 -66 36 -97 48 -56 21 -62 21 -1025 24 -631 2
-988 -1 -1024 -8 -89 -16 -194 -74 -255 -139 -91 -99 -132 -216 -125 -358 2
-44 -1 -69 -7 -67 -5 3 -38 45 -73 95 l-63 91 15 47 c8 25 25 84 39 131 14 47
36 121 49 165 l24 80 145 48 c79 26 183 60 231 76 48 16 98 26 112 24 44 -9
33 28 -19 60 -67 43 -182 161 -211 218 -22 45 -24 54 -13 87 24 79 192 366
210 360 10 -4 179 -169 179 -175 0 -3 -19 -28 -43 -56 -24 -29 -58 -73 -76
-98 -31 -44 -35 -47 -71 -42 -23 3 -40 1 -45 -7 -11 -18 10 -32 60 -40 l46 -7
54 76 c57 80 90 121 98 121 2 0 7 -62 10 -137 6 -154 32 -302 55 -310 15 -6
32 14 26 31 -13 36 -35 197 -40 291 -5 85 -1 145 16 265 12 85 24 158 26 161
6 10 -24 32 -34 25 -5 -3 -17 -55 -27 -116 -11 -60 -21 -110 -25 -110 -3 0
-45 39 -93 86 -53 52 -85 90 -80 97 23 40 108 142 183 220 92 96 120 107 120
49 0 -41 37 -244 60 -334 28 -106 75 -239 116 -327 19 -41 34 -80 34 -87 0
-24 19 -25 102 -1 88 26 367 129 458 169 l55 25 -1 -59 c-1 -51 1 -58 15 -53
20 8 59 21 241 80 80 26 171 61 203 78 160 84 257 289 228 478 -30 191 -162
336 -349 384 -73 18 -242 26 -242 11 0 -6 -10 0 -22 12 -22 21 -22 23 -6 67
13 33 15 52 8 71 -17 43 -11 72 21 108 80 92 49 196 -74 241 -50 19 -84 54
-107 113 -16 41 -60 78 -109 93 -33 10 -50 8 -109 -10 -83 -25 -110 -26 -176
-6 -27 8 -67 15 -89 15 -36 0 -46 -6 -109 -72 -84 -88 -95 -112 -73 -163 8
-21 14 -39 12 -41 -2 -2 -48 10 -102 25 -55 16 -197 54 -315 86 -118 31 -225
61 -238 66 -61 24 -131 1 -185 -61 -49 -57 -61 -116 -55 -266 4 -100 9 -129
32 -184 40 -96 40 -97 -2 -93 -47 4 -124 -14 -184 -42 -63 -30 -130 -84 -122
-97 4 -6 2 -8 -4 -5 -13 9 -58 -44 -85 -100 -24 -50 0 -48 -277 -30 l-185 12
-150 -51 c-82 -29 -158 -55 -167 -59 -17 -7 -18 3 -18 116 0 158 -11 224 -51
305 -57 115 -140 189 -266 237 -56 21 -75 22 -488 27 l-429 5 -10 39 c-8 36
-6 42 16 60 85 70 68 185 -34 234 -24 11 -59 36 -77 56 -38 39 -56 43 -125 24
-41 -11 -49 -10 -98 15 -58 30 -62 30 -98 16z m317 -261 c79 -216 76 -205 77
-348 0 -126 -2 -139 -28 -195 -35 -78 -77 -120 -143 -145 -86 -32 -173 -22
-278 33 -74 39 -81 47 -95 107 -7 30 -19 70 -26 88 -12 30 -17 33 -42 28 -20
-5 -36 0 -62 19 -53 39 -62 62 -34 89 23 23 66 19 109 -9 20 -15 39 -25 40
-23 1 2 7 23 12 48 9 43 5 89 -11 137 -7 22 -7 22 28 8 87 -36 157 -1 176 90
l6 30 77 -3 c87 -4 136 13 157 53 17 33 23 31 37 -7z m2926 7 c77 -18 100 -35
128 -92 17 -36 23 -65 23 -122 1 -54 5 -76 15 -79 7 -2 17 2 22 9 16 25 10
137 -10 189 -11 27 -17 50 -15 50 9 0 229 -62 237 -67 5 -3 1 -10 -7 -16 -13
-10 -14 -18 -5 -47 6 -19 14 -69 17 -110 6 -66 9 -75 27 -75 17 0 20 8 23 55
2 35 -5 79 -17 120 -22 69 -22 73 0 65 28 -11 54 -96 54 -175 0 -63 3 -75 17
-78 34 -7 44 121 15 191 -12 27 -13 37 -4 37 20 0 40 -17 33 -28 -3 -5 5 -29
18 -53 35 -62 42 -111 22 -150 -9 -18 -16 -37 -16 -42 0 -6 -12 -24 -27 -39
-23 -24 -25 -32 -16 -47 6 -10 19 -58 28 -107 42 -228 108 -443 198 -649 40
-91 63 -130 80 -133 25 -5 21 30 -9 89 -14 28 -23 56 -21 63 3 6 53 39 113 73
198 113 269 159 269 173 0 31 -36 18 -174 -65 -79 -47 -145 -85 -147 -85 -2 0
-20 -11 -40 -25 -20 -14 -40 -25 -44 -25 -9 0 -100 243 -100 267 0 14 4 13 25
-7 37 -35 110 -39 170 -9 78 39 185 175 185 235 0 26 22 25 77 -7 82 -47 165
-135 204 -216 30 -60 33 -77 34 -153 0 -75 -4 -91 -30 -138 -38 -69 -111 -135
-200 -179 -75 -38 -426 -169 -481 -179 -38 -7 -36 -10 -100 148 -93 231 -147
511 -142 736 3 110 5 127 19 124 9 -1 22 5 29 13 17 20 -6 48 -33 41 -30 -7
-64 21 -82 68 -12 31 -16 67 -13 127 2 50 -1 86 -7 89 -20 9 -40 -55 -41 -132
0 -43 -2 -80 -5 -82 -4 -5 -309 -96 -345 -103 l-22 -5 20 59 c53 156 47 346
-17 496 -9 20 -7 20 68 2z m839 -75 c12 -11 31 -20 43 -20 15 0 26 -12 39 -40
10 -23 33 -61 52 -86 26 -33 33 -51 28 -69 -8 -34 22 -46 45 -18 20 26 58 46
71 38 6 -3 10 -19 10 -35 0 -35 -50 -80 -90 -80 -15 0 -32 -6 -39 -13 -16 -20
-54 -298 -42 -310 16 -16 41 1 41 28 0 25 23 35 35 15 8 -13 -36 -109 -71
-156 -32 -41 -97 -88 -136 -98 -39 -9 -94 16 -112 53 -10 19 -16 56 -16 105 0
79 -13 103 -37 71 -7 -11 -13 -33 -14 -49 -1 -26 -3 -24 -15 19 -8 28 -18 76
-22 108 l-9 57 21 -17 c12 -10 23 -21 26 -25 13 -16 86 -40 125 -40 57 0 118
26 113 49 -4 19 -10 20 -76 3 -75 -18 -144 15 -181 87 -29 57 -5 83 99 107 82
19 100 39 100 112 0 74 -22 96 -132 129 -49 15 -88 28 -88 30 0 11 24 55 30
55 4 0 21 -7 36 -15 38 -20 62 -19 104 4 19 10 36 19 38 20 2 0 12 -8 24 -19z
m-1019 -101 c41 -11 132 -90 125 -110 -2 -6 -24 -22 -48 -35 -80 -43 -175 -29
-242 34 -25 23 -26 27 -13 52 15 29 86 70 120 70 11 0 37 -5 58 -11z m959 -62
c12 -19 9 -61 -5 -81 -7 -9 -28 -21 -47 -25 -19 -4 -45 -11 -57 -15 -22 -7
-23 -5 -23 42 0 33 -8 64 -25 96 -14 26 -25 49 -25 51 0 9 174 -56 182 -68z
m-447 -267 c4 -6 -5 -10 -20 -10 -15 0 -24 4 -20 10 3 6 12 10 20 10 8 0 17
-4 20 -10z m-3667 -190 c50 -31 146 -60 197 -60 l45 0 0 -44 c0 -24 -9 -72
-20 -107 -10 -34 -17 -66 -14 -71 11 -17 35 -7 46 20 16 37 16 36 34 22 39
-33 90 -173 80 -216 -14 -53 -88 -12 -214 115 -94 95 -178 151 -225 151 -21 0
-21 1 7 100 9 30 16 67 16 83 0 32 5 33 48 7z m2269 -130 c81 -6 168 -12 193
-13 l45 -3 -5 -35 c-3 -18 -5 -270 -5 -558 l0 -523 -105 6 c-113 7 -437 32
-560 44 l-75 7 0 355 c0 345 1 355 20 365 36 18 239 147 258 163 16 14 20 13
45 -11 79 -75 304 -119 279 -54 -4 10 -27 16 -75 19 -77 6 -145 34 -189 80
-33 34 -40 35 -84 2 -106 -79 -339 -213 -544 -313 -199 -97 -235 -113 -275
-118 -38 -5 -201 25 -315 57 -38 11 -72 17 -76 14 -16 -10 -9 -36 11 -41 25
-7 25 -14 -1 -47 -30 -38 -39 -32 -39 25 0 105 50 240 118 318 l37 42 104 -51
104 -51 56 20 c258 89 547 190 651 225 69 24 150 53 180 64 67 25 63 24 247
12z m-1775 -100 c110 -19 279 -63 346 -91 l34 -14 -32 -40 c-70 -88 -111 -208
-113 -332 -2 -77 -4 -83 -23 -83 -11 0 -23 2 -26 5 -3 3 1 38 8 78 18 103 18
263 0 270 -26 10 -33 -17 -39 -148 -5 -130 -22 -228 -56 -340 -25 -80 -68
-175 -79 -175 -10 0 -156 166 -224 255 -71 94 -172 252 -230 360 -31 59 -60
101 -71 103 -11 2 -17 -3 -17 -13 0 -30 84 -187 170 -318 l58 -88 -56 -36
c-75 -48 -163 -141 -203 -216 l-32 -61 -60 64 c-73 77 -141 181 -183 279 -36
81 -47 97 -63 87 -17 -11 -13 -30 24 -112 51 -111 137 -235 221 -320 l74 -73
45 16 45 15 112 -94 c179 -149 232 -188 314 -227 l77 -37 48 -160 c27 -87 48
-168 49 -179 0 -19 -36 -54 -108 -104 -154 -108 -464 -71 -787 93 l-100 51 3
110 c2 61 10 200 17 310 l14 200 -43 145 c-79 263 -111 425 -100 498 8 54 92
195 142 240 62 57 115 75 212 76 109 0 127 -9 260 -139 143 -140 208 -171 269
-129 21 15 23 23 19 78 -3 56 -15 89 -76 209 -6 12 39 8 160 -13z m-182 -715
c116 -146 156 -183 262 -246 55 -32 102 -59 104 -59 2 0 21 -11 42 -24 88 -55
511 -294 533 -301 49 -15 196 -78 251 -108 55 -29 94 -31 86 -4 -3 10 -116 76
-153 90 -5 2 2 46 18 103 15 54 36 133 48 174 11 41 23 78 27 82 4 4 52 3 107
-2 55 -5 188 -16 295 -25 188 -15 525 -42 813 -66 110 -9 137 -15 137 -27 0
-16 -84 -307 -102 -356 l-11 -28 -35 41 c-55 66 -111 51 -112 -32 0 -33 -2
-37 -22 -32 -13 2 -61 6 -107 7 l-84 3 -23 -70 c-13 -38 -26 -89 -30 -112 -7
-49 -17 -45 150 -64 124 -14 129 -12 141 62 4 21 10 39 14 39 5 0 16 -17 25
-38 17 -36 16 -40 -7 -117 -37 -118 -83 -270 -107 -353 l-22 -73 -42 6 c-22 3
-99 12 -171 20 -71 8 -229 26 -350 40 -121 14 -278 32 -350 40 -71 8 -188 21
-260 30 -71 8 -136 15 -142 15 -7 0 -13 7 -13 15 0 15 105 383 111 390 2 2 26
-1 53 -6 53 -10 73 -2 63 25 -4 9 -18 16 -31 16 -44 0 -137 41 -178 78 -21 19
-54 60 -72 91 -18 32 -40 57 -52 59 -54 9 -323 89 -427 128 -218 81 -310 131
-452 247 -71 58 -157 130 -190 160 -57 52 -59 55 -47 81 29 64 212 221 233
199 4 -5 39 -48 79 -98z m2527 -341 c-3 -3 -12 -4 -19 -1 -8 3 -5 6 6 6 11 1
17 -2 13 -5z m1693 -481 c27 -5 29 -8 28 -55 0 -71 21 -96 120 -145 2 0 -4
-16 -13 -33 -11 -22 -15 -44 -10 -67 3 -19 2 -40 -4 -47 -6 -7 -6 -17 -1 -26
8 -13 15 -12 49 7 45 26 71 21 71 -13 0 -37 -59 -78 -122 -84 l-53 -5 -12 -90
c-20 -150 -27 -309 -14 -332 9 -18 5 -33 -27 -94 -67 -132 -180 -229 -264
-229 -80 0 -148 68 -148 147 0 79 76 201 147 235 23 11 29 21 33 58 7 60 13
67 63 75 71 12 157 65 157 97 0 25 -25 23 -63 -6 -92 -68 -220 -61 -297 16
-44 43 -60 86 -60 155 0 116 54 235 170 376 8 11 46 43 84 73 l68 54 35 -30
c19 -17 48 -33 63 -37z m-1766 -55 c43 -62 102 -149 133 -193 31 -44 91 -130
132 -190 42 -61 103 -149 136 -196 l59 -86 194 -5 c106 -3 196 -9 200 -13 4
-3 9 -83 10 -176 4 -169 4 -169 -19 -169 -38 0 -310 48 -432 77 l-68 16 -68
116 c-106 182 -266 465 -269 479 -2 6 -16 12 -32 12 -39 0 -43 10 -23 69 13
42 20 50 34 46 35 -11 41 5 18 43 -49 83 -59 103 -78 167 -22 71 -27 115 -12
115 5 0 43 -51 85 -112z m1166 -713 c52 -8 136 -22 187 -31 l92 -17 -39 -46
c-56 -66 -82 -131 -81 -202 0 -116 61 -180 177 -187 80 -5 138 20 209 93 40
40 132 182 149 230 4 13 115 -25 223 -77 l85 -41 64 -130 c35 -71 61 -133 58
-138 -3 -5 -13 -9 -23 -9 -58 0 -201 -108 -247 -186 l-25 -43 -81 69 c-44 39
-86 70 -94 70 -37 0 -18 -30 75 -117 l102 -96 -7 -67 c-7 -78 9 -215 36 -302
l19 -60 -27 -71 c-27 -70 -28 -71 -77 -84 -128 -34 -311 -53 -506 -53 -108 0
-211 3 -228 6 l-31 7 6 51 c4 28 15 86 24 129 17 78 17 80 -6 155 -16 51 -24
102 -24 150 0 39 2 72 4 72 2 0 23 -7 47 -16 167 -60 520 -114 540 -83 14 23
-11 39 -60 39 -72 0 -244 26 -352 54 -150 38 -206 72 -245 149 -24 47 -26 58
-22 146 4 77 12 117 42 201 52 149 71 237 56 256 -19 22 -36 1 -44 -54 -4 -26
-22 -90 -39 -142 l-33 -95 -84 0 -85 0 5 75 c3 41 4 153 4 249 l-2 173 82 -6
c44 -4 124 -13 176 -21z m-304 -387 c-3 -13 -6 -32 -6 -42 0 -28 -10 -13 -20
28 -7 32 -6 36 12 36 16 0 19 -5 14 -22z"/>
<path d="M1723 5933 c-19 -7 -16 -27 6 -47 20 -19 41 -14 41 8 0 18 -32 44
-47 39z"/>
<path d="M1594 5885 c-4 -10 3 -26 19 -43 38 -41 57 -86 57 -135 0 -50 -12
-60 -60 -50 -24 4 -30 2 -30 -12 0 -44 64 -58 105 -22 50 43 43 134 -18 223
-34 51 -63 67 -73 39z"/>
<path d="M1433 5834 c-8 -22 9 -48 36 -52 22 -4 28 18 15 52 -8 21 -43 21 -51
0z"/>
<path d="M1467 5574 c-4 -4 -7 -22 -7 -39 0 -97 143 -117 189 -27 7 12 9 26 6
31 -10 17 -176 47 -188 35z"/>
<path d="M5446 5647 l-70 -22 28 -23 c36 -28 68 -28 100 1 29 26 44 67 24 66
-7 0 -44 -10 -82 -22z"/>
<path d="M4417 5886 c-21 -22 -30 -71 -18 -95 25 -46 95 -33 106 20 14 62 -48
115 -88 75z"/>
<path d="M3603 5235 c-9 -24 10 -32 100 -40 64 -5 83 -4 95 8 13 13 12 16 -4
25 -11 5 -56 13 -102 16 -71 6 -83 5 -89 -9z"/>
<path d="M3565 5180 c-16 -26 22 -42 114 -48 86 -4 91 -4 91 15 0 18 -9 21
-68 26 -38 4 -82 10 -99 13 -19 4 -33 1 -38 -6z"/>
<path d="M3550 5081 c0 -15 11 -19 61 -25 113 -11 149 -8 149 13 0 24 -26 31
-127 31 -74 0 -83 -2 -83 -19z"/>
<path d="M2930 4042 c0 -48 10 -59 27 -30 10 18 12 19 13 6 0 -21 24 -34 69
-37 19 -1 40 -9 47 -19 14 -19 15 -18 31 25 9 26 8 35 -3 43 -7 7 -17 9 -22 6
-14 -8 -96 14 -105 30 -4 8 -19 14 -32 14 -22 0 -25 -4 -25 -38z"/>
<path d="M3515 3988 c-24 -69 -55 -177 -55 -194 0 -24 4 -26 163 -45 57 -7
102 -8 106 -3 4 5 18 43 30 84 12 41 27 88 33 103 16 41 2 49 -99 58 -132 11
-173 11 -178 -3z"/>
<path d="M3007 3763 c-3 -5 -17 -52 -32 -107 -18 -67 -23 -102 -16 -109 14
-14 252 -40 263 -29 16 16 70 214 61 223 -4 4 -58 13 -118 19 -131 12 -152 12
-158 3z"/>
<path d="M2650 3731 c0 -13 16 -24 60 -40 33 -12 87 -38 121 -57 69 -39 75
-40 83 -19 8 22 -61 68 -155 105 -91 35 -109 37 -109 11z"/>
<path d="M2594 3675 c-9 -21 -2 -26 81 -60 39 -16 89 -39 111 -52 33 -19 43
-21 52 -10 6 7 8 17 4 23 -11 16 -71 50 -137 77 -94 38 -104 41 -111 22z"/>
<path d="M2906 3399 c-37 -122 -39 -136 -26 -144 10 -6 213 -35 251 -35 11 0
24 29 47 104 18 57 32 111 32 119 0 17 -30 22 -187 33 l-92 6 -25 -83z"/>
<path d="M3352 3393 c-19 -37 -63 -206 -55 -214 4 -4 64 -14 133 -22 94 -11
128 -12 136 -3 12 12 64 183 64 209 0 18 -23 23 -135 32 -44 3 -92 8 -107 11
-19 4 -29 0 -36 -13z"/>
<path d="M5582 3488 c-19 -19 -15 -48 7 -48 19 0 31 18 31 46 0 17 -22 18 -38
2z"/>
<path d="M5616 3409 c-19 -23 -41 -57 -47 -77 -10 -29 -9 -38 8 -61 26 -34 88
-38 88 -6 0 14 -7 20 -25 20 -39 0 -36 34 6 88 21 27 34 53 30 62 -9 24 -22
18 -60 -26z"/>
<path d="M5777 3413 c-10 -10 -8 -51 2 -58 14 -8 43 25 37 42 -3 8 -6 17 -6
19 0 7 -26 5 -33 -3z"/>
<path d="M5643 3187 c-90 -10 -97 -16 -62 -61 37 -48 127 -29 150 32 5 14 6
28 2 32 -4 3 -45 2 -90 -3z"/>
<path d="M3557 6273 c-4 -3 -7 -12 -7 -20 0 -9 16 -13 58 -13 96 0 224 -28
310 -68 28 -13 35 -13 42 -2 5 8 6 18 3 23 -9 15 -95 48 -178 68 -78 18 -215
26 -228 12z"/>
<path d="M1635 2450 c-73 -11 -153 -45 -210 -88 -83 -63 -162 -183 -169 -256
-2 -27 -17 -50 -63 -100 -81 -86 -144 -212 -115 -230 13 -8 27 7 42 44 26 67
91 160 112 160 4 0 8 -272 8 -604 l0 -603 88 29 c48 16 107 30 132 31 42 2 45
4 42 27 -14 121 -14 153 2 195 36 92 130 148 212 126 72 -19 105 -73 113 -181
5 -66 8 -75 26 -75 12 0 21 8 23 20 2 17 15 23 62 32 33 6 104 31 157 56 54
25 138 57 187 72 55 16 96 35 107 48 25 30 24 89 -2 112 -18 17 -22 17 -43 5
-12 -8 -41 -36 -65 -62 l-42 -46 23 -16 c12 -9 29 -16 38 -16 24 -1 -41 -26
-84 -33 -36 -6 -43 -3 -75 31 -45 47 -89 128 -107 196 -17 62 -18 191 -3 235
10 28 15 31 54 31 24 0 47 5 50 10 11 18 -15 40 -46 40 -35 0 -35 2 -7 52 20
35 25 38 48 31 53 -17 144 -8 198 18 l51 26 37 -38 c20 -21 63 -49 95 -64 58
-26 59 -27 59 -66 0 -22 6 -55 14 -73 20 -47 82 -113 120 -127 l31 -11 -30
-61 c-23 -46 -30 -74 -30 -118 0 -58 14 -87 34 -75 6 4 11 31 11 61 0 135 97
239 223 240 54 0 61 -3 87 -32 50 -55 59 -137 30 -250 -5 -22 -4 -35 4 -42 28
-24 46 17 55 129 l6 75 85 34 c47 19 146 55 220 81 98 34 138 53 145 68 5 12
23 23 41 27 59 11 175 76 228 129 33 32 67 80 91 128 33 69 38 88 43 170 3 67
0 111 -12 157 -45 176 -205 317 -388 341 -87 11 -1869 11 -1943 0z"/>
<path d="M2299 1671 c-42 -14 -69 -31 -69 -46 0 -23 16 -26 55 -9 25 10 51 13
75 9 25 -4 41 -2 45 5 17 28 -56 56 -106 41z"/>
<path d="M2301 1534 c-11 -24 -10 -30 9 -48 l21 -21 20 24 c17 21 18 26 6 45
-21 31 -42 31 -56 0z"/>
<path d="M2060 1526 c-18 -23 -8 -61 16 -64 16 -2 23 4 28 23 4 16 2 33 -5 41
-15 18 -24 18 -39 0z"/>
<path d="M2150 1498 c-40 -93 -31 -190 22 -215 30 -15 75 -3 85 23 9 24 -11
38 -35 23 -47 -30 -68 43 -37 131 8 23 15 51 15 61 0 35 -31 20 -50 -23z"/>
<path d="M2892 1255 c3 -95 16 -131 39 -108 8 8 9 41 4 107 -7 87 -9 96 -27
96 -19 0 -20 -6 -16 -95z"/>
<path d="M2990 1271 c0 -57 4 -82 15 -91 33 -27 42 9 29 118 -6 42 -10 52 -25
52 -17 0 -19 -9 -19 -79z"/>
<path d="M2776 1312 c-5 -9 19 -156 29 -171 3 -6 13 -11 22 -11 13 0 15 9 10
58 -9 80 -25 132 -42 132 -8 0 -16 -4 -19 -8z"/>
<path d="M6050 1108 c1 -53 39 -152 61 -156 20 -4 33 26 20 42 -6 7 -18 43
-29 81 -13 47 -25 71 -36 73 -13 3 -16 -5 -16 -40z"/>
<path d="M5964 1115 c-14 -36 47 -175 77 -175 23 0 25 27 5 56 -8 11 -22 46
-31 77 -16 56 -39 75 -51 42z"/>
<path d="M1742 1097 c-6 -8 -5 -40 3 -90 13 -83 27 -109 46 -90 8 8 8 34 -1
96 -12 84 -27 110 -48 84z"/>
<path d="M1552 1068 c-8 -10 -8 -37 -1 -93 14 -111 17 -125 34 -125 24 0 27
18 15 113 -11 95 -27 130 -48 105z"/>
<path d="M1642 1061 c-9 -5 -10 -21 -1 -67 14 -83 18 -94 34 -94 23 0 26 17
14 84 -11 67 -26 90 -47 77z"/>
</g>
</svg>
